<?xml version="1.0" encoding="utf-8"?>
<!-- Generator: Adobe Illustrator 25.0.1, SVG Export Plug-In . SVG Version: 6.00 Build 0)  -->
<svg version="1.1" id="Layer_1" xmlns="http://www.w3.org/2000/svg" xmlns:xlink="http://www.w3.org/1999/xlink" x="0px" y="0px"
	 viewBox="0 0 8192 8192" style="enable-background:new 0 0 8192 8192;" xml:space="preserve">
<style type="text/css">
	.st0{font-family:'GraviconDisplay';}
	.st1{font-size:340px;}
	.st2{fill:#FF0000;}
	.st3{fill:#F9DAD2;}
	.st4{fill:#800080;}
	.st5{fill:#E3C1E5;}
	.st6{fill:#001C84;}
	.st7{fill:#CDCCE5;}
	.st8{fill:#00874E;}
	.st9{fill:#CCE7DC;}
	.st10{fill:#522B1A;}
	.st11{fill:#A0705B;}
	.st12{fill:#F4821F;}
	.st13{fill:#ECDAB3;}
</style>
<g>
	<text transform="matrix(1 0 0 1 4083.0088 5011.5103)" class="st0 st1">D TEAM</text>
	<g>
		<g>
			<path id="E_5_" class="st2" d="M3896.9,4707.5c0,0-69.5,60.6-171.7,35.8c-21.8,252.7,172.2,331.3,171.7,331.5
				c41-20.7,67.9-45.9,68.7-46.6c-0.1,0-33.5-47.9-33.5-47.9s-31,24.3-35.2,25.1c-55.1-26.8-83.1-91-83-91l165-0.1
				c-0.3,0.9,12.7-23.5,22.5-56.1c0,0.1-210,0-210,0c0.2,2.5-9.2-31.7-11-54.3c0,0,67.3,8.1,116.4-24c45.8,30,115.3,24,115.3,24
				l55-60.5C3948.3,4765.9,3896.9,4707.5,3896.9,4707.5"/>
		</g>
		<path id="_x32_0_x25__opacity_5_" class="st3" d="M4012,4804.1c-13,114.3-80.1,176.3-80.1,176.3l33.5,47.9
			c0,0,105.7-90.7,101.6-284.7L4012,4804.1L4012,4804.1z"/>
	</g>
	<text transform="matrix(1 0 0 1 3513.3882 5011.5098)" class="st0 st1">R</text>
</g>
<g>
	<text transform="matrix(1 0 0 1 4538.8008 4428.6538)" class="st0 st1"> TEAM</text>
	<g>
		<path id="E_4_" class="st4" d="M4368.6,4116.9c0,0-69.5,60.6-171.7,35.8c-21.8,252.7,172.2,331.3,171.7,331.5
			c41-20.7,67.9-45.9,68.7-46.6c-0.1,0-33.5-47.9-33.5-47.9s-31,24.3-35.2,25.1c-55.1-26.8-83.1-91-83-91l165-0.1
			c-0.3,0.9,12.7-23.5,22.5-56.1c0,0.1-210,0-210,0c0.2,2.5-9.2-31.7-11-54.3c0,0,67.3,8.1,116.4-24c45.8,30,115.3,24,115.3,24
			l55-60.5C4420,4175.3,4368.6,4116.9,4368.6,4116.9"/>
	</g>
	<path id="_x32_0_x25__opacity_4_" class="st5" d="M4483.7,4213.5c-13,114.3-80.1,176.3-80.1,176.3l33.5,47.9
		c0,0,105.7-90.7,101.6-284.7L4483.7,4213.5L4483.7,4213.5z"/>
	<text transform="matrix(1 0 0 1 3235.3933 4428.6543)" class="st0 st1">PURPL</text>
</g>
<g>
	<text transform="matrix(1 0 0 1 4342.1748 3820.1958)" class="st0 st1">C TEAM</text>
	<path id="E_2_" class="st6" d="M4156.6,3508.6c0,0-69.5,60.6-171.7,35.8c-21.8,252.7,172.2,331.3,171.7,331.5
		c41-20.7,67.9-45.9,68.7-46.6c-0.1,0-33.5-47.9-33.5-47.9s-31,24.3-35.2,25.1c-55.1-26.8-83.1-91-83-91l165-0.1
		c-0.3,0.9,12.7-23.5,22.5-56.1c0,0.1-210,0-210,0c0.2,2.5-9.2-31.7-11-54.3c0,0,67.3,8.1,116.4-24c45.8,30,115.3,24,115.3,24
		l55-60.5C4208,3567,4156.6,3508.6,4156.6,3508.6"/>
	<path id="_x32_0_x25__opacity_2_" class="st7" d="M4271.7,3605.2c-13,114.3-80.1,176.3-80.1,176.3l33.5,47.9
		c0,0,105.7-90.7,101.6-284.7L4271.7,3605.2L4271.7,3605.2z"/>
	<text transform="matrix(1 0 0 1 3164.8826 3820.1958)" class="st0 st1">APPS</text>
</g>
<g>
	<path id="E_1_" class="st8" d="M3462,2934.4c0,0-69.5,60.6-171.7,35.8c-21.8,252.7,172.2,331.3,171.7,331.5
		c41-20.7,67.9-45.9,68.7-46.6c-0.1,0-33.5-47.9-33.5-47.9s-31,24.3-35.2,25.1c-55.1-26.8-83.1-91-83-91l165-0.1
		c-0.3,0.9,12.7-23.5,22.5-56.1c0,0.1-210,0-210,0c0.2,2.5-9.2-31.7-11-54.3c0,0,67.3,8.1,116.4-24c45.8,30,115.3,24,115.3,24
		l55-60.5C3513.4,2992.8,3462,2934.4,3462,2934.4"/>
	<path id="_x32_0_x25__opacity_1_" class="st9" d="M3577.1,3031c-13,114.3-80.1,176.3-80.1,176.3l33.5,47.9
		c0,0,105.7-90.7,101.6-284.7L3577.1,3031L3577.1,3031z"/>
	<text transform="matrix(1 0 0 1 3655.3738 3226.3706)" class="st0 st1">NTEST TEAM</text>
	<text transform="matrix(1 0 0 1 3071.0403 3238.3704)" class="st0 st1">P</text>
</g>
<g>
	<text transform="matrix(1 0 0 1 3545.5747 2647.2036)" class="st0 st1">ROP T</text>
	<path id="E_3_" class="st10" d="M4668.4,2354.2c0,0-69.5,60.6-171.7,35.8c-21.8,252.7,172.2,331.3,171.7,331.5
		c41-20.7,67.9-45.9,68.7-46.6c-0.1,0-33.5-47.9-33.5-47.9s-31,24.3-35.2,25.1c-55.1-26.8-83.1-91-83-91l165-0.1
		c-0.3,0.9,12.7-23.5,22.5-56.1c0,0.1-210,0-210,0c0.2,2.5-9.2-31.7-11-54.3c0,0,67.3,8.1,116.4-24c45.8,30,115.3,24,115.3,24
		l55-60.5C4719.8,2412.6,4668.4,2354.2,4668.4,2354.2"/>
	<path id="_x32_0_x25__opacity_3_" class="st11" d="M4783.5,2449.8c-13,114.3-80.1,176.3-80.1,176.3l33.5,47.9
		c0,0,105.7-90.7,101.6-284.7L4783.5,2449.8L4783.5,2449.8z"/>
	<text transform="matrix(1 0 0 1 4789.0312 2647.2036)" class="st0 st1">AM</text>
</g>
<g>
	<g>
		<path id="E_6_" class="st12" d="M3330.7,5432.4c0,0-69.5,60.6-171.7,35.8c-21.8,252.7,172.2,331.3,171.7,331.5
			c41-20.7,67.9-45.9,68.7-46.6c-0.1,0-33.5-47.9-33.5-47.9s-31,24.3-35.2,25.1c-55.1-26.8-83.1-91-83-91l165-0.1
			c-0.3,0.9,12.7-23.5,22.5-56.1c0,0.1-210,0-210,0c0.2,2.5-9.2-31.7-11-54.3c0,0,67.3,8.1,116.4-24c45.8,30,115.3,24,115.3,24
			l55-60.5C3382.1,5490.8,3330.7,5432.4,3330.7,5432.4"/>
	</g>
	<path id="_x32_0_x25__opacity_6_" class="st13" d="M3445.8,5529c-13,114.3-80.1,176.3-80.1,176.3l33.5,47.9
		c0,0,105.7-90.7,101.6-284.7L3445.8,5529L3445.8,5529z"/>
</g>
<text transform="matrix(1 0 0 1 2551.3135 5735.8369)" class="st0 st1">THR  AT MODELING TEAM</text>
</svg>
