<?xml version="1.0" encoding="utf-8"?>
<!-- Generator: Adobe Illustrator 21.1.0, SVG Export Plug-In . SVG Version: 6.00 Build 0)  -->
<svg version="1.1" id="d05-logo-ere-numerique2018" xmlns="http://www.w3.org/2000/svg" xmlns:xlink="http://www.w3.org/1999/xlink"
	 x="0px" y="0px" viewBox="0 0 128 28" style="enable-background:new 0 0 128 28;" xml:space="preserve">
<style type="text/css">
	.st0{fill:#00874E;}
</style>
<path id="s_1_" class="st0" d="M124.2933044,15.2039995c-1.2039948-0.4300003-1.5479965-0.6879988-1.5479965-1.2039995
	c0-0.4300003,0.3439941-0.7739992,1.0319977-0.7739992c1.0319977,0,1.8059998,0.6019993,2.493988,1.2039995L127.8192978,12.71
	c-1.0319977-1.118-2.4939957-1.7200003-4.0419922-1.7200003c-2.2360077,0-3.7839966,1.29-3.7839966,3.0960007
	c0,2.0639992,1.6339951,2.9239998,3.1819992,3.4400005c0.1719971,0.0860004,0.3439941,0.0860004,0.5159988,0.1720009
	c0.8600006,0.2579994,1.3760071,0.4299984,1.3760071,0.9459991c0,0.3439999-0.1719971,0.7740002-1.2900009,0.7740002
	c-1.0319977,0-2.0639954-0.5160007-2.5799942-1.2900009l-1.6339951,1.7200012
	c1.1179962,1.289999,2.493988,1.8920002,4.2139893,1.8920002c2.4939957,0,4.0419998-1.2040005,4.0419998-3.1820011
	C127.905304,16.6660004,126.5293121,16.0639992,124.2933044,15.2039995z"/>
<path id="n" class="st0" d="M111.2213135,12.0219994h-0.0860062v-0.8599997h-2.7519989v10.4919996h2.7519989v-5.4180012
	c0-2.408,1.461998-2.7519989,2.4079971-2.7519989c1.5480042,0,2.1500015,1.289999,2.1500015,2.4940004v5.6759996h2.7519989
	v-5.6759996c0-3.0960007-1.7200012-4.9880009-4.4720001-4.9880009
	C111.9953079,10.9899998,111.2213135,12.0219994,111.2213135,12.0219994z"/>
<path id="i" class="st0" d="M106.4053116,7.7219996c0,0.8600001-0.6880035,1.6340003-1.6340027,1.6340003
	c-0.8600006,0-1.6340027-0.6880007-1.6340027-1.6340003c0-0.8599997,0.6880035-1.6339998,1.6340027-1.6339998
	C105.6313095,6.0880003,106.4053116,6.862,106.4053116,7.7219996z M106.1473083,11.1619997h-2.7519989v10.4919996h2.7519989
	V11.1619997z"/>
<path id="d" class="st0" d="M98.493309,20.7080002h0.0859985v0.9459991h2.5800018V6.3460002h-2.7519989v5.6760001H98.321312
	c-0.5159988-0.6879997-1.8059998-1.0319996-2.6660004-1.0319996c-3.3540039,0-5.0740051,2.7519999-5.0740051,5.4180002
	c0,1.9779987,0.8600006,3.2679996,1.5480042,3.9560013c0.9459991,0.9459991,2.2360001,1.4619999,3.526001,1.4619999
	C96.257309,21.8260002,97.2893143,21.6539993,98.493309,20.7080002z M95.8273087,19.3320007
	c-1.461998,0-2.6660004-1.2900009-2.6660004-2.9239998s1.2040024-2.9239998,2.6660004-2.9239998
	c1.6340027,0,2.6660004,1.5479994,2.6660004,2.9239998C98.493309,18.0419998,97.2893143,19.3320007,95.8273087,19.3320007z"/>
<path id="r" class="st0" d="M86.7113113,12.3660002L86.7113113,12.3660002l-0.0859985-1.2039995h-2.7519989v10.4920006h2.7519989
	v-4.7299995c0-1.8920012,0.9459991-3.1820002,3.2679977-3.1820002v-2.7519999
	C88.5173111,10.9899998,87.3993149,11.4200001,86.7113113,12.3660002z"/>
<path id="a" class="st0" d="M80.0893097,11.7639999c-0.7739944-0.5160007-1.7199936-0.7740002-2.8379974-0.7740002
	c-1.7200012,0-3.0960007,0.6020002-3.9560013,1.7200003c0.1719971,0.1719999,1.3759995,1.4620008,1.6340027,1.7200003
	c0.4300003-0.6020002,0.8600006-0.9460011,1.461998-1.118c0.2580032-0.0860004,0.4300003-0.0860004,0.6880035-0.0860004
	c0.3440018,0,0.6880035,0.0860004,0.9459991,0.1719999c0.6880035,0.2579994,1.0319977,0.7739992,1.0319977,1.4619999v0.6879997
	c-0.0859985,0-0.9459991-0.4300003-2.3219986-0.4300003c-2.2360001,0-3.8700027,1.4620008-3.8700027,3.3539991
	c0,1.8920021,1.461998,3.2679996,3.4400024,3.2679996c1.2040024,0,1.9780045-0.5160007,2.6660004-1.1179981h0.0859985v0.9459991
	h2.5799942v-6.8799992C81.6373062,13.3979998,81.1213074,12.4519997,80.0893097,11.7639999z M79.057312,18.2139988
	c0,0.5160007-1.1180038,1.3760014-2.4080048,1.3760014c-0.7740021,0-1.3759995-0.5160007-1.3759995-1.2040005
	c0-0.4299984,0.2580032-1.289999,1.6340027-1.289999c1.0319977,0,2.1500015,0.3439999,2.1500015,0.3439999V18.2139988z"/>
<path id="j" class="st0" d="M71.4893112,7.7219996c0,0.8600001-0.6880035,1.6340003-1.6340027,1.6340003
	c-0.8600006,0-1.6339951-0.6880007-1.6339951-1.6340003s0.6879959-1.6339998,1.6339951-1.6339998
	C70.7153091,6.0880003,71.4893112,6.862,71.4893112,7.7219996z M68.2213135,25.6960011
	c1.8059921,0,3.0099945-1.2040005,3.0099945-3.6980019V11.1619997h-2.7519989v10.750001
	c0,0.9460011-0.4299927,1.4619999-1.0319901,1.4619999c-0.3440018,0-0.6019974-0.0860004-0.9459991-0.2579994l-0.4300003,2.3220024
	C66.7593155,25.6100006,67.2753143,25.6960011,68.2213135,25.6960011L68.2213135,25.6960011z"/>
<path id="s" class="st0" d="M62.9753113,15.2039995C61.7713089,14.7739992,61.4273071,14.5160007,61.4273071,14
	c0-0.4300003,0.3440018-0.7739992,1.0319977-0.7739992c1.0319977,0,1.8059998,0.6019993,2.4940033,1.2039995L66.5013123,12.71
	c-1.0319977-1.118-2.4940033-1.7200003-4.0419998-1.7200003c-2.2360001,0-3.7840004,1.29-3.7840004,3.0960007
	c0,2.0639992,1.6340027,2.9239998,3.1819954,3.4400005c0.1719971,0.0860004,0.3440018,0.0860004,0.5159988,0.1720009
	c0.8600006,0.2579994,1.3759995,0.4299984,1.3759995,0.9459991c0,0.3439999-0.1719971,0.7740002-1.2900009,0.7740002
	c-1.0319977,0-2.0639992-0.5160007-2.579998-1.2900009l-1.6340027,1.7200012
	c1.1180038,1.289999,2.4940033,1.8920002,4.2140007,1.8920002c2.4940033,0,4.0419998-1.2040005,4.0419998-3.1820011
	C66.5873108,16.6660004,65.2113113,16.0639992,62.9753113,15.2039995z"/>
<path id="e" class="st0" d="M57.2133064,16.3220005c0-3.0959997-2.1499977-5.3319998-5.1599998-5.3319998
	c-3.0099983,0-5.1599998,2.2360001-5.1599998,5.4180002s2.2360001,5.4180012,5.4179993,5.4180012
	c1.8920021,0,3.4400024-0.6879997,4.4720001-1.8920002c-0.1719971-0.2579994-1.3759956-1.4620018-1.6339989-1.7200012
	c-0.5159988,0.6020012-1.4620018,1.2040005-2.5800018,1.2040005c-1.3759995,0-2.4079971-0.7740002-2.7519989-2.1499996h7.3959999
	C57.2133064,17.0960007,57.2133064,16.6660004,57.2133064,16.3220005z M49.7313118,15.29
	c0.343998-1.29,1.2039986-1.9779997,2.4079971-1.9779997c1.2040024,0,2.064003,0.6879997,2.3220024,1.9779997H49.7313118z"/>
<path id="D" class="st0" d="M37.4333115,6.3459997h-5.2459984v15.3079996h5.3320007
	c4.8159981,0,7.9119987-3.0100002,7.9119987-7.6539993C45.4313087,9.4419994,42.163311,6.3459997,37.4333115,6.3459997z
	 M37.3473091,19.0739994h-1.9780006V9.0120001H37.51931c2.8379974,0,4.8159981,2.1499996,4.8159981,5.0740004
	C42.3353119,17.0100002,40.2713089,19.0739994,37.3473091,19.0739994z"/>
<path id="alveole" class="st0" d="M0.2813102,7.1199999v13.7599993l11.9539995,6.8800011l11.9540005-6.8800011V7.1199999
	L12.2353096,0.24L0.2813102,7.1199999z M20.9213104,9.0120001v10.0619993l-8.6860008,4.9880009L3.5493102,18.987999V9.0120001
	l8.6860008-4.9880004L20.9213104,9.0120001z"/>
</svg>
